<svg width="42" height="16" fill="none" xmlns="http://www.w3.org/2000/svg"><path d="M6.603.099c-.149.067-1.268 1.319-3.365 3.765C1.51 5.88.075 7.586.048 7.655c-.062.163-.062.557 0 .72.071.185 6.291 7.424 6.454 7.511.248.133.878.091 1.085-.072.392-.309.51-.887.264-1.289-.071-.115-1.142-1.391-2.38-2.835L3.22 9.065l19.058-.035 19.057-.035.235-.168a.994.994 0 000-1.624l-.235-.168L22.278 7 3.22 6.965 5.471 4.34c1.238-1.444 2.309-2.719 2.38-2.835.255-.417.102-1.056-.32-1.332-.244-.16-.664-.194-.928-.074" fill-rule="evenodd" fill="#000"/></svg>