<svg width="22" height="16" fill="none" xmlns="http://www.w3.org/2000/svg"><path d="M14.825.04a.966.966 0 0 0-.698.524 1.005 1.005 0 0 0-.023.829c.046.099 1.01 1.253 2.404 2.879l2.328 2.713-9.042.018-9.042.019-.196.108a.976.976 0 0 0 0 1.727l.196.108 9.042.018 9.042.019-2.328 2.713c-1.394 1.626-2.358 2.779-2.404 2.878-.113.242-.103.584.023.83a.967.967 0 0 0 1.296.435c.19-.093.415-.346 3.29-3.695 1.766-2.059 3.12-3.668 3.167-3.764a1.015 1.015 0 0 0 0-.812c-.047-.096-1.401-1.704-3.167-3.763-2.86-3.332-3.1-3.602-3.282-3.688-.23-.109-.395-.135-.606-.096" fill-rule="evenodd" fill="#000"/></svg>